
<svg xmlns="http://www.w3.org/2000/svg" viewBox="0 8.859999656677246 243.19000244140625 37.0099983215332" data-asc="0.9052734375"><g fill="#000000"><g fill="#000000" transform="translate(0, 0)"><path d="M11.79 45.26L11.79 13.70L0 13.70L0 9.47L28.37 9.47L28.37 13.70L16.53 13.70L16.53 45.26L11.79 45.26ZM44.87 36.91L49.41 37.48Q48.34 41.46 45.43 43.65Q42.53 45.85 38.01 45.85Q32.32 45.85 28.99 42.35Q25.66 38.84 25.66 32.52Q25.66 25.98 29.03 22.36Q32.40 18.75 37.77 18.75Q42.97 18.75 46.26 22.29Q49.56 25.83 49.56 32.25Q49.56 32.64 49.54 33.42L30.20 33.42Q30.44 37.70 32.62 39.97Q34.79 42.24 38.04 42.24Q40.45 42.24 42.16 40.97Q43.87 39.70 44.87 36.91M30.44 29.81L44.92 29.81Q44.63 26.54 43.26 24.90Q41.16 22.36 37.82 22.36Q34.79 22.36 32.73 24.39Q30.66 26.42 30.44 29.81ZM71.85 35.77L76.17 36.33Q75.46 40.80 72.55 43.32Q69.63 45.85 65.38 45.85Q60.06 45.85 56.82 42.37Q53.59 38.89 53.59 32.40Q53.59 28.20 54.98 25.05Q56.37 21.90 59.22 20.32Q62.06 18.75 65.41 18.75Q69.63 18.75 72.31 20.89Q75 23.02 75.76 26.95L71.48 27.61Q70.87 25 69.32 23.68Q67.77 22.36 65.58 22.36Q62.26 22.36 60.18 24.74Q58.11 27.12 58.11 32.28Q58.11 37.50 60.11 39.87Q62.11 42.24 65.33 42.24Q67.92 42.24 69.65 40.65Q71.39 39.06 71.85 35.77ZM79.93 45.26L79.93 9.47L84.33 9.47L84.33 22.31Q87.40 18.75 92.09 18.75Q94.97 18.75 97.09 19.89Q99.22 21.02 100.13 23.02Q101.05 25.02 101.05 28.83L101.05 45.26L96.66 45.26L96.66 28.83Q96.66 25.54 95.23 24.04Q93.80 22.53 91.19 22.53Q89.23 22.53 87.51 23.55Q85.79 24.56 85.06 26.29Q84.33 28.03 84.33 31.08L84.33 45.26L79.93 45.26ZM120.58 33.76L125.05 33.37Q125.37 36.06 126.53 37.78Q127.69 39.50 130.13 40.56Q132.57 41.63 135.62 41.63Q138.33 41.63 140.41 40.82Q142.48 40.01 143.49 38.61Q144.51 37.21 144.51 35.55Q144.51 33.86 143.53 32.60Q142.55 31.35 140.31 30.49Q138.87 29.93 133.94 28.75Q129.00 27.56 127.03 26.51Q124.46 25.17 123.21 23.18Q121.95 21.19 121.95 18.73Q121.95 16.02 123.49 13.66Q125.02 11.30 127.98 10.08Q130.93 8.86 134.55 8.86Q138.53 8.86 141.56 10.14Q144.60 11.43 146.24 13.92Q147.88 16.41 148.00 19.56L143.46 19.90Q143.09 16.50 140.98 14.77Q138.87 13.04 134.74 13.04Q130.44 13.04 128.48 14.61Q126.51 16.19 126.51 18.41Q126.51 20.34 127.91 21.58Q129.27 22.83 135.05 24.13Q140.82 25.44 142.97 26.42Q146.09 27.86 147.58 30.07Q149.07 32.28 149.07 35.16Q149.07 38.01 147.44 40.54Q145.80 43.07 142.74 44.47Q139.67 45.87 135.84 45.87Q130.98 45.87 127.70 44.46Q124.41 43.04 122.55 40.20Q120.68 37.35 120.58 33.76ZM164.58 41.33L165.21 45.21Q163.35 45.61 161.89 45.61Q159.50 45.61 158.18 44.85Q156.86 44.09 156.32 42.86Q155.79 41.63 155.79 37.67L155.79 22.75L152.56 22.75L152.56 19.34L155.79 19.34L155.79 12.92L160.16 10.28L160.16 19.34L164.58 19.34L164.58 22.75L160.16 22.75L160.16 37.92Q160.16 39.79 160.39 40.33Q160.62 40.87 161.15 41.19Q161.67 41.50 162.65 41.50Q163.38 41.50 164.58 41.33ZM185.79 42.07Q183.35 44.14 181.09 45.00Q178.83 45.85 176.25 45.85Q171.97 45.85 169.68 43.76Q167.38 41.67 167.38 38.43Q167.38 36.52 168.25 34.95Q169.12 33.37 170.52 32.42Q171.92 31.47 173.68 30.98Q174.98 30.64 177.59 30.32Q182.91 29.69 185.42 28.81Q185.45 27.91 185.45 27.66Q185.45 24.98 184.20 23.88Q182.52 22.39 179.20 22.39Q176.10 22.39 174.62 23.47Q173.14 24.56 172.44 27.32L168.14 26.73Q168.73 23.97 170.07 22.28Q171.41 20.58 173.95 19.67Q176.49 18.75 179.83 18.75Q183.15 18.75 185.23 19.53Q187.30 20.31 188.28 21.50Q189.26 22.68 189.65 24.49Q189.87 25.61 189.87 28.54L189.87 34.40Q189.87 40.53 190.15 42.15Q190.43 43.77 191.26 45.26L186.67 45.26Q185.99 43.90 185.79 42.07M185.42 32.25Q183.03 33.23 178.25 33.91Q175.54 34.30 174.41 34.79Q173.29 35.28 172.68 36.22Q172.07 37.16 172.07 38.31Q172.07 40.06 173.40 41.24Q174.73 42.41 177.29 42.41Q179.83 42.41 181.81 41.30Q183.79 40.19 184.72 38.26Q185.42 36.77 185.42 33.86L185.42 32.25ZM213.60 35.77L217.92 36.33Q217.21 40.80 214.29 43.32Q211.38 45.85 207.13 45.85Q201.81 45.85 198.57 42.37Q195.34 38.89 195.34 32.40Q195.34 28.20 196.73 25.05Q198.12 21.90 200.96 20.32Q203.81 18.75 207.15 18.75Q211.38 18.75 214.06 20.89Q216.75 23.02 217.50 26.95L213.23 27.61Q212.62 25 211.07 23.68Q209.52 22.36 207.32 22.36Q204.00 22.36 201.93 24.74Q199.85 27.12 199.85 32.28Q199.85 37.50 201.86 39.87Q203.86 42.24 207.08 42.24Q209.67 42.24 211.40 40.65Q213.13 39.06 213.60 35.77ZM221.70 45.26L221.70 9.47L226.10 9.47L226.10 29.88L236.50 19.34L242.19 19.34L232.28 28.96L243.19 45.26L237.77 45.26L229.20 32.01L226.10 34.99L226.10 45.26L221.70 45.26Z"/></g></g></svg>
